<svg xmlns="http://www.w3.org/2000/svg" viewBox="0 0 160 30" width="160" height="30">
  <defs>
    <linearGradient id="tg" x1="0%" y1="0%" x2="100%" y2="100%">
      <stop offset="0%" style="stop-color:#C9A84C"/>
      <stop offset="100%" style="stop-color:#E8D8A0"/>
    </linearGradient>
  </defs>
  <!-- Small icon -->
  <rect x="1" y="2" width="26" height="26" rx="5" fill="#1B2A4A"/>
  <rect x="7" y="6" width="10" height="15" rx="1" fill="url(#tg)"/>
  <rect x="4" y="10" width="4" height="11" rx="1" fill="url(#tg)"/>
  <rect x="17" y="10" width="4" height="11" rx="1" fill="url(#tg)"/>
  <g fill="#1B2A4A">
    <rect x="9" y="8" width="2.5" height="2.5" rx="0.3"/>
    <rect x="13" y="8" width="2.5" height="2.5" rx="0.3"/>
    <rect x="9" y="13" width="2.5" height="2.5" rx="0.3"/>
    <rect x="13" y="13" width="2.5" height="2.5" rx="0.3"/>
  </g>
  <rect x="10.5" y="18" width="3" height="3" rx="0.5" fill="#1B2A4A"/>
  <polygon points="12,3 12.8,5.2 15,5.2 13.2,6.5 13.8,8.5 12,7.2 10.2,8.5 10.8,6.5 9,5.2 11.2,5.2" fill="url(#tg)" transform="scale(0.7) translate(3.5,1)"/>
  <line x1="2" y1="21" x2="26" y2="21" stroke="url(#tg)" stroke-width="0.8" stroke-linecap="round"/>
  <!-- VELARA text -->
  <text x="34" y="20" font-family="Georgia, 'Times New Roman', serif" font-size="16" font-weight="700" fill="#1B2A4A" letter-spacing="2">VELARA</text>
</svg>
